<svg width="21" height="20" viewBox="0 0 21 20" fill="none" xmlns="http://www.w3.org/2000/svg">
<path d="M17 10C17.9283 10 18.8185 9.63125 19.4749 8.97487C20.1313 8.3185 20.5 7.42826 20.5 6.5C20.5 5.64641 20.3319 4.80117 20.0052 4.01256C19.6786 3.22394 19.1998 2.50739 18.5962 1.90381C17.9926 1.30023 17.2761 0.821438 16.4874 0.494783C15.6988 0.168127 14.8536 0 14 0C13.0717 0 12.1815 0.368749 11.5251 1.02513C10.8687 1.6815 10.5 2.57174 10.5 3.5C10.5 2.57174 10.1313 1.6815 9.47487 1.02513C8.8185 0.368749 7.92826 0 7 0C5.27609 0 3.62279 0.684819 2.40381 1.90381C1.18482 3.12279 0.5 4.77609 0.5 6.5C0.5 7.42826 0.868749 8.3185 1.52513 8.97487C2.1815 9.63125 3.07174 10 4 10C3.07174 10 2.1815 10.3687 1.52513 11.0251C0.868749 11.6815 0.5 12.5717 0.5 13.5C0.5 14.3536 0.668127 15.1988 0.994783 15.9874C1.32144 16.7761 1.80023 17.4926 2.40381 18.0962C3.62279 19.3152 5.27609 20 7 20C7.92826 20 8.8185 19.6313 9.47487 18.9749C10.1313 18.3185 10.5 17.4283 10.5 16.5C10.5 17.4283 10.8687 18.3185 11.5251 18.9749C12.1815 19.6313 13.0717 20 14 20C14.8536 20 15.6988 19.8319 16.4874 19.5052C17.2761 19.1786 17.9926 18.6998 18.5962 18.0962C19.1998 17.4926 19.6786 16.7761 20.0052 15.9874C20.3319 15.1988 20.5 14.3536 20.5 13.5C20.5 12.5717 20.1313 11.6815 19.4749 11.0251C18.8185 10.3687 17.9283 10 17 10V10ZM10.5 14C9.43913 14 8.42172 13.5786 7.67157 12.8284C6.92143 12.0783 6.5 11.0609 6.5 10C6.5 8.93913 6.92143 7.92172 7.67157 7.17157C8.42172 6.42143 9.43913 6 10.5 6C11.5609 6 12.5783 6.42143 13.3284 7.17157C14.0786 7.92172 14.5 8.93913 14.5 10C14.5 11.0609 14.0786 12.0783 13.3284 12.8284C12.5783 13.5786 11.5609 14 10.5 14ZM13 10C13 10.663 12.7366 11.2989 12.2678 11.7678C11.7989 12.2366 11.163 12.5 10.5 12.5C9.83696 12.5 9.20107 12.2366 8.73223 11.7678C8.26339 11.2989 8 10.663 8 10C8 9.33696 8.26339 8.70107 8.73223 8.23223C9.20107 7.76339 9.83696 7.5 10.5 7.5C11.163 7.5 11.7989 7.76339 12.2678 8.23223C12.7366 8.70107 13 9.33696 13 10V10Z" fill="#EBCE38"/>
</svg>
