<svg width="36" height="36" viewBox="0 0 36 36" fill="none" xmlns="http://www.w3.org/2000/svg">
<path d="M18.0005 3.37085C9.93635 3.37085 3.37549 9.93171 3.37549 17.9959C3.37549 26.06 9.93635 32.6209 18.0005 32.6209C26.0646 32.6209 32.6255 26.06 32.6255 17.9959C32.6255 9.93171 26.0646 3.37085 18.0005 3.37085ZM23.2521 21.1473C22.6545 21.8757 20.4614 23.8529 18.0005 25.6128C15.5395 23.855 13.3465 21.8757 12.7488 21.1473C11.3426 19.4337 10.669 17.6738 10.6887 15.7684C10.7105 13.5844 12.462 11.8076 14.5931 11.8076C16.14 11.8076 17.2158 12.6802 17.8409 13.408L18.0005 13.6013L18.1601 13.408C18.7739 12.6725 19.8581 11.8084 21.4078 11.8084C23.539 11.8084 25.2905 13.5851 25.3123 15.7691C25.332 17.6738 24.6577 19.4337 23.2521 21.1473Z" fill="#707070"/>
</svg>
